<?xml version="1.0" encoding="utf-8"?>
<!-- Generator: Adobe Illustrator 27.5.0, SVG Export Plug-In . SVG Version: 6.00 Build 0)  -->
<svg version="1.1" id="Layer_1" xmlns="http://www.w3.org/2000/svg" xmlns:xlink="http://www.w3.org/1999/xlink" x="0px" y="0px"
	 viewBox="0 0 250 250" enable-background="new 0 0 250 250" xml:space="preserve">
<path fill="#FFFFFF" d="M10.3,236.4c0-76.4,0-152.7,0-229.1c76.4,0,152.7,0,229.1,0c0,76.3,0,152.7,0,229.1c-1,0-1.8,0-2.6,0
	C161.3,236.4,85.8,236.4,10.3,236.4z M156.4,58.3c2.1,1.7,4,3.1,5.8,4.8c19.1,17.8,26.1,39.9,21.9,65.4c-5.1,30.7-34.1,52.8-65,49.7
	c-20.7-2.1-36.2-12.6-46.7-30.4c-7-11.9-9.3-24.9-8-38.6C66,93,71.9,78.8,83.1,66.9c2.9-3.1,6.3-5.8,9-8.2
	c-22.3,12.4-41,40.2-34.4,73.8c6.5,33.3,36.3,56.2,69.3,55.3c33-0.9,62.7-26.7,66.1-62.2C195.9,96.1,178.6,70.2,156.4,58.3z
	 M122.7,107.2c-4.6,1.6-7.6,7-7,13.1c0.3,2.7,1.5,5.1,3.4,7.1c3.4,3.6,7.8,4,12.7,3.5c-0.4,0.6-0.5,0.8-0.7,1
	c-2.6,3.3-5.1,6.6-7.7,9.9c-0.4,0.5-1.1,0.9-1.7,1.2c-1.9,1-3.9,1.9-5.8,2.8c0,0.2,0.1,0.4,0.1,0.6c2.7,0.4,5.5,0.8,8.2,1.2
	c1.1,0.2,1.7-0.1,2.2-1.2c1.5-3.1,3.6-5.6,6.8-7.2c-2.9,5.3-5.2,10.7-4.5,16.9c0.7,6.5,4.5,12.3,9,14.3c-5.1-7.7-4.4-17.7,1.5-19.8
	c-1,4.3-0.5,8.2,1.7,11.8c0.8-1.5,1.5-3,2.3-4.6c1.1,2.5,1.9,4.5,2.8,6.5c0.5-2.7,0.6-5.4,1.6-7.7c1.3-3,3.2-5.7,5-8.4
	c1.1-1.7,2.5-3.2,3.6-4.9c0.8-1.1,1.1-2.6,2-3.6c5-6.1,9.4-12.5,11.9-20.2c1.7-5.5,2.3-11.1,1.7-16.8c-0.2-1.8-0.7-2-2.4-1.4
	c-3.8,1.5-7.7,2.8-11.5,4.4c-1,0.4-2.2,1.3-2.6,2.3c-4.2,10.5-12.3,16.5-23.1,18.6c-7.9,1.6-13.9-4.7-12.3-12.6
	C120.3,111.5,121.8,109.3,122.7,107.2z M124.2,59c16.7-3.8,27.4,10.8,28.1,20.4c-0.4-0.7-0.7-1.2-1-1.7c-3-5.1-7.2-9.1-12.6-11.6
	c-13-6-26.6,2.6-26.2,16.6c0.2,5,3.6,9.4,8.3,10.3c-0.5-0.5-0.9-0.9-1.3-1.4c-5.7-6.5-3.2-16.2,4.8-19c2.6-0.9,5.2-0.8,7.9-0.1
	c7.9,2.1,13.9,6.8,18.6,13.4c1.4,2,2.1,2.2,4.4,1.4c3.3-1.2,5.9-3.3,7.9-6.1c0.6-0.8,0.8-2.4,0.4-3.3c-2.8-7-7.5-12.5-13.8-16.6
	c-5.6-3.6-11.6-6.1-18.4-5.7C128.6,55.8,126.3,56.8,124.2,59z M94.7,82.4c-6.4,2.7-11.7,6.8-15.6,12.5c-4.2,6.2-6.5,12.9-5.6,20.5
	c0.7,6.4,4,11.6,7.7,16.5c0.7,1,1.7,1,2.6,0.4c2-1.5,4-3,5.9-4.7c1-0.9,0.8-1.8-0.3-2.7c-1.3-1.1-2.6-2.2-3.6-3.6
	c-6-8.1-5.9-16.7-2-25.6C86.2,90.4,90,86,94.7,82.4z M106.5,144.3c0.2-0.1,0.7-0.1,1-0.4c4.5-3.1,8.9-6.2,13.3-9.3
	c0.4-0.3,0.8-1.1,0.7-1.5c-0.1-0.4-0.9-0.7-1.4-0.8c-3.8-1.1-7.7-2-11.5-3.2c-1.6-0.5-2.3,0-2.6,1.4c-0.8,3.6-1.6,7.2-2.3,10.8
	C103.3,143.3,104.2,144.3,106.5,144.3z M158,101c4.3-0.4,7.7-2,10.8-4.2c1.1-0.7,2.4-1.8,1.8-3.4c-0.9-2.5-1.9-4.9-3-7.4
	c-0.5-1.2-1.4-1.4-2.5-0.4c-2.7,2.6-5.8,4.6-9.4,5.7c-1,0.3-1.3,0.7-0.9,1.9c0.6,1.9,1,3.9,1.2,5.8C156.2,100.5,157.1,100.9,158,101
	z M97.3,91.3c-4,4-6.9,8.7-8.3,14.2c-1.1,4.1-1.3,8.3,0.2,12.3c1.4,3.8,3.6,7,7.8,8.1c0.9,0.2,2.2,0.1,2.9-0.5
	c1.1-1-0.2-1.8-0.7-2.6c-4.2-5.7-6.8-12-6-19.2C93.6,99.2,95.1,95.1,97.3,91.3z M99.2,132.3c-0.1,0-0.2,0-0.3,0c0-0.6,0.1-1.2,0-1.8
	c-0.2-0.7-0.6-1.8-1.1-2c-0.6-0.2-1.5,0.4-2.1,0.9c-2.6,1.9-5.1,4-7.8,5.8c-1.5,1-1.6,1.5,0,2.3c2.5,1.3,5,2.4,7.5,3.7
	c1.4,0.7,2.2,0.3,2.5-1.2C98.4,137.4,98.8,134.9,99.2,132.3z"/>
<g>
	<path fill="#73B0BD" d="M156.4,58.3c22.2,11.9,39.5,37.8,36.6,67.3c-3.4,35.5-33.1,61.3-66.1,62.2c-33,0.9-62.8-22-69.3-55.3
		C51,98.9,69.8,71.1,92,58.7c-2.7,2.5-6.1,5.1-9,8.2C71.9,78.8,66,93,64.4,109.1c-1.3,13.7,0.9,26.7,8,38.6
		c10.5,17.7,26,28.3,46.7,30.4c30.9,3.1,59.9-19,65-49.7c4.2-25.5-2.7-47.6-21.9-65.4C160.4,61.4,158.5,60,156.4,58.3z"/>
	<path fill="#73B0BD" d="M122.7,107.2c-0.9,2.1-2.4,4.3-2.9,6.6c-1.6,7.9,4.4,14.2,12.3,12.6c10.8-2.2,18.8-8.1,23.1-18.6
		c0.4-1,1.6-1.9,2.6-2.3c3.8-1.6,7.7-2.9,11.5-4.4c1.7-0.6,2.2-0.4,2.4,1.4c0.6,5.7,0,11.3-1.7,16.8c-2.4,7.6-6.8,14.1-11.9,20.2
		c-0.9,1-1.2,2.5-2,3.6c-1.1,1.7-2.5,3.2-3.6,4.9c-1.8,2.7-3.7,5.4-5,8.4c-1,2.3-1.1,5-1.6,7.7c-0.8-2-1.7-4-2.8-6.5
		c-0.8,1.6-1.5,3.1-2.3,4.6c-2.2-3.5-2.7-7.5-1.7-11.8c-5.9,2.1-6.5,12.2-1.5,19.8c-4.5-2-8.3-7.8-9-14.3
		c-0.7-6.2,1.7-11.6,4.5-16.9c-3.2,1.6-5.3,4.1-6.8,7.2c-0.5,1.1-1.1,1.4-2.2,1.2c-2.7-0.4-5.5-0.8-8.2-1.2c0-0.2-0.1-0.4-0.1-0.6
		c1.9-0.9,3.9-1.8,5.8-2.8c0.6-0.3,1.3-0.7,1.7-1.2c2.6-3.3,5.2-6.6,7.7-9.9c0.2-0.2,0.3-0.5,0.7-1c-4.9,0.5-9.3,0.1-12.7-3.5
		c-1.9-2-3.1-4.4-3.4-7.1C115.1,114.3,118.1,108.9,122.7,107.2z"/>
	<path fill="#73B0BD" d="M124.2,59c2.2-2.2,4.5-3.2,7.1-3.3c6.8-0.4,12.8,2,18.4,5.7c6.3,4.1,11,9.7,13.8,16.6
		c0.4,0.9,0.2,2.5-0.4,3.3c-2,2.8-4.6,5-7.9,6.1c-2.3,0.8-3,0.6-4.4-1.4c-4.6-6.6-10.6-11.3-18.6-13.4c-2.6-0.7-5.2-0.8-7.9,0.1
		c-8,2.8-10.5,12.5-4.8,19c0.4,0.4,0.8,0.9,1.3,1.4c-4.6-0.9-8.1-5.3-8.3-10.3c-0.4-14,13.2-22.7,26.2-16.6
		c5.4,2.5,9.6,6.5,12.6,11.6c0.3,0.5,0.6,1,1,1.7C151.5,69.8,140.9,55.2,124.2,59z"/>
	<path fill="#73B0BD" d="M94.7,82.4C90,86,86.2,90.4,83.8,95.8c-3.9,8.9-4,17.5,2,25.6c1,1.3,2.3,2.5,3.6,3.6
		c1.1,0.9,1.3,1.9,0.3,2.7c-1.9,1.7-3.9,3.2-5.9,4.7c-0.8,0.6-1.9,0.6-2.6-0.4c-3.7-5-7-10.1-7.7-16.5c-0.9-7.6,1.4-14.3,5.6-20.5
		C83,89.2,88.3,85.1,94.7,82.4z"/>
	<path fill="#73B0BD" d="M106.5,144.3c-2.3-0.1-3.2-1.1-2.8-3c0.7-3.6,1.5-7.2,2.3-10.8c0.3-1.4,1-1.9,2.6-1.4
		c3.8,1.2,7.7,2.1,11.5,3.2c0.5,0.1,1.3,0.5,1.4,0.8c0.1,0.4-0.3,1.2-0.7,1.5c-4.4,3.2-8.9,6.2-13.3,9.3
		C107.2,144.2,106.7,144.2,106.5,144.3z"/>
	<path fill="#73B0BD" d="M158,101c-0.9-0.1-1.7-0.5-1.9-2c-0.2-2-0.6-3.9-1.2-5.8c-0.3-1.1,0-1.6,0.9-1.9c3.6-1.1,6.7-3.1,9.4-5.7
		c1-1,1.9-0.8,2.5,0.4c1.1,2.4,2.1,4.9,3,7.4c0.6,1.7-0.8,2.7-1.8,3.4C165.6,99,162.2,100.7,158,101z"/>
	<path fill="#73B0BD" d="M97.3,91.3c-2.1,3.9-3.7,7.9-4.1,12.3c-0.7,7.3,1.8,13.5,6,19.2c0.5,0.7,1.9,1.6,0.7,2.6
		c-0.7,0.6-2,0.7-2.9,0.5c-4.2-1.1-6.4-4.3-7.8-8.1c-1.5-4.1-1.3-8.2-0.2-12.3C90.4,99.9,93.3,95.3,97.3,91.3z"/>
	<path fill="#73B0BD" d="M99.2,132.3c-0.5,2.5-0.9,5.1-1.4,7.6c-0.3,1.5-1.2,1.9-2.5,1.2c-2.5-1.2-5-2.4-7.5-3.7
		c-1.6-0.8-1.4-1.3,0-2.3c2.7-1.9,5.2-3.9,7.8-5.8c0.6-0.5,1.6-1,2.1-0.9c0.5,0.2,0.9,1.2,1.1,2c0.2,0.6,0,1.2,0,1.8
		C99,132.3,99.1,132.3,99.2,132.3z"/>
</g>
</svg>
